<svg xmlns="http://www.w3.org/2000/svg" xmlns:xlink="http://www.w3.org/1999/xlink" version="1.1" x="0px" y="0px" viewBox="0 0 256 320" style="enable-background:new 0 0 256 256;" xml:space="preserve"><title>Wild west</title><path d="M55.0836,106.0768c13.291-14.3809,11.564-23.2344,11.1118-24.7959c-1.5143-6.0053-7.5884-9.6654-13.6054-8.1982  c-2.5591,0.7192-4.749,2.3844-6.126,4.6582c-2.2695-1.3834-4.9798-1.8532-7.5825-1.3145c-6.0123,1.4748-9.7155,7.5161-8.3015,13.543  c0.3169,1.5918,2.86,10.2461,21.2827,16.8936C53,107.375,54.25,107,55.0836,106.0768z M36.429,88.6315  c-0.6876-2.8299,1.0459-5.6821,3.8745-6.375c1.6445-0.4043,3.7773,0.8057,5.1626,2.1777c1.177,1.1661,4.0339,1.4408,4.9668-1.2109  c0.5981-1.8574,1.9365-3.91,3.58-4.3115c3.3621-0.7243,5.8621,1.6507,6.4445,4.1182c-0.0144,0.0616,1.4326,6.1689-8.4375,17.48  C38.0625,95,36.4504,88.6949,36.429,88.6315z"/><path d="M219.736,19.7252h-91.272c-10.7975,0.0122-19.5474,8.7625-19.5591,19.56v0.9133L32.02,58.9547  c-10.4943,2.5605-16.9263,13.1432-14.3665,23.6377l35.356,144.9268c2.1377,8.7455,9.9633,14.9064,18.9663,14.9316  c1.5742-0.0007,3.1425-0.1905,4.6714-0.5654l88.6714-21.6318c6.3194-1.5438,11.4575-6.1288,13.7079-12.2324h40.71  c10.7974-0.0125,19.5471-8.7626,19.5591-19.56V39.2848C239.2834,28.4874,230.5334,19.7374,219.736,19.7252z M75.2253,236.0573  c-7.2753,1.7748-14.6118-2.6843-16.3866-9.9596c0-0.0001-35.3561-144.9271-35.3561-144.9271  c-1.9201-12.7331,7.9549-15.7956,9.959-16.3867l75.4634-18.41v8.6578L61.8,66.5241l1.4219,5.8281l45.6831-11.1447V106.98  c-1.2829,0.0532-2.5573,0.2333-3.8047,0.5378c-5.4351,1.3252-9.3628,5.74-11.7271,10.376c-4.2339-3.0254-9.7529-5.1357-15.1885-3.81  c-10.291,2.5233-16.6141,12.8818-14.1547,23.1883c0.3965,1.9756,4.6987,18.33,39.938,31.043  c1.1342,0.4087,2.4028,0.0991,3.2212-0.7861c0.5931-0.6418,1.1545-1.2714,1.7163-1.9011v22.8337  c0.0117,10.7975,8.7616,19.5478,19.5591,19.56h0.88L72.59,221.8659L44.884,108.2985l-5.8291,1.4215l28.417,116.4824  c0.2343,2.0649,2.6531,2.5476,3.6255,2.2031l64.44-15.7207l-1.1374-4.6637h38.0112c-1.8411,3.2109-4.9189,5.5259-8.5145,6.4043  L75.2253,236.0573z M108.905,112.995v43.3389c-1.4459,1.8153-3.0217,3.6921-4.7764,5.6453  c-31.1694-11.7422-34.1836-25.7139-34.2031-25.8077c-0.0127-0.084-0.0293-0.166-0.0493-0.248  c-1.725-7.1066,2.6275-14.2687,9.73-16.0107c0.6534-0.157,1.3231-0.2353,1.9951-0.2334c4.0464,0,8.2427,2.6729,10.86,5.2666  c1.1781,1.1657,3.0781,1.1558,4.2439-0.0223c0.3309-0.3344,0.5785-0.7419,0.7229-1.1896c1.3169-4.09,4.4888-9.2637,9.0933-10.3877  C107.3037,113.1578,108.1015,113.0402,108.905,112.995z M233.295,188.4616c-0.0082,7.4852-6.0739,13.5513-13.5591,13.56h-91.272  c-7.4852-0.0087-13.5509-6.0748-13.5591-13.56V39.2848c0.0082-7.4852,6.0739-13.5513,13.5591-13.56h91.272  c7.4852,0.0087,13.5509,6.0748,13.5591,13.56V188.4616z"/><path d="M129.2058,57.9137c2.2526-0.1358,4.4185-0.9169,6.2393-2.25v4.7175h-6.2759v6h18.5522v-6h-6.2764V55.664  c1.8208,1.3331,3.9867,2.1142,6.2393,2.25c4.6265,0.0161,8.39-3.7214,8.406-8.3479s-3.7214-8.39-8.3479-8.406  c-0.0194-0.0001-0.0388-0.0001-0.0582,0c-0.4134,0.0048-0.8257,0.0429-1.233,0.114c1.3633-4.4218-1.1161-9.1115-5.5378-10.4748  c-4.4218-1.3633-9.1115,1.1161-10.4748,5.5378c-0.4959,1.6083-0.4959,3.3287,0,4.9369c-0.4073-0.0711-0.8196-0.1092-1.233-0.114  c-4.6265-0.0161-8.39,3.7214-8.406,8.3479c-0.0161,4.6265,3.7214,8.39,8.3479,8.406c0.0194,0.0001,0.0388,0.0001,0.0582,0  L129.2058,57.9137z M147.6843,47.16c1.3128-0.0086,2.3839,1.0487,2.3925,2.3614s-1.0487,2.3839-2.3614,2.3925  c-0.0104,0.0001-0.0207,0.0001-0.0311,0c-1.0967,0-2.8535-1.1006-4.4014-2.377C144.8308,48.26,146.5876,47.16,147.6843,47.16z   M138.445,36.5407c1.3126,0.0014,2.3762,1.0653,2.3774,2.3779c0,1.0967-1.1006,2.8535-2.3774,4.4014  c-1.2769-1.5479-2.3774-3.3047-2.3774-4.4014C136.0688,37.606,137.1324,36.5421,138.445,36.5407z M129.2058,47.16  c1.0967,0,2.8535,1.1006,4.4014,2.377c-1.5479,1.2764-3.3047,2.377-4.4014,2.377c-1.3128,0.0086-2.3839-1.0487-2.3925-2.3614  c-0.0086-1.3128,1.0487-2.3839,2.3614-2.3925C129.1851,47.16,129.1954,47.16,129.2058,47.16L129.2058,47.16z"/><path d="M218.9943,169.8317c-2.2526,0.1357-4.4185,0.9168-6.2393,2.25v-4.7166h6.2759v-6h-18.5522v6h6.2764v4.7169  c-1.821-1.3333-3.9872-2.1143-6.24-2.25c-4.6267,0-8.3775,3.7507-8.3775,8.3774c0.9874,9.2906,9.2034,8.3345,9.6109,8.2635  c-1.3633,4.4216,1.116,9.1113,5.5376,10.4746s9.1113-1.116,10.4746-5.5376c0.4959-1.6083,0.4959-3.3286,0-4.9369  c5.8643,0.6521,9.6109-3.6367,9.6109-8.2635c0-4.6267-3.7507-8.3774-8.3775-8.3774l0,0L218.9943,169.8317z M200.5153,180.5866  c-1.313,0-2.3774-1.0644-2.3774-2.3775c0-1.313,1.0644-2.3774,2.3774-2.3774c1.0972,0,2.8535,1.1006,4.4019,2.3779  C203.3689,179.486,201.6125,180.5866,200.5153,180.5866L200.5153,180.5866z M209.7553,191.2057  c-1.3126-0.0014-2.3762-1.0653-2.3774-2.3779c0-1.0967,1.1006-2.8535,2.3774-4.4014c1.2764,1.5479,2.377,3.3047,2.377,4.4014  c-0.0011,1.3125-1.0647,2.3764-2.3772,2.3779L209.7553,191.2057z M218.9946,180.5866c-1.0981,0-2.8569-1.1025-4.4058-2.3809  c1.5435-1.2754,3.2988-2.374,4.4058-2.374c1.313,0,2.3774,1.0644,2.3774,2.3774  C221.372,179.5222,220.3076,180.5866,218.9946,180.5866z"/><path d="M194.9172,129.1745c8.2212,0,14.8857-6.6646,14.8857-14.8857s-6.6646-14.8857-14.8857-14.8857  c-2.6731,0.0785-5.294,0.7592-7.6675,1.9912c1.2574-2.3939,1.9541-5.0423,2.0376-7.7451c0-8.2212-6.6646-14.8857-14.8858-14.8857  c-8.2212,0-14.8857,6.6646-14.8857,14.8857c0.0976,2.8558,0.8659,5.6484,2.2427,8.1523c-2.5911-1.4702-5.4988-2.293-8.4761-2.3984  c-8.2212,0-14.8857,6.6646-14.8857,14.8857s6.6646,14.8857,14.8857,14.8857c3.51,0,7.4575-1.4707,11.7817-4.3818v1.4756  c-0.004,3.3413-2.7119,6.0489-6.0532,6.0527h-2.793c-1.6569,0-3,1.3431-3,3v9.0537c0,1.6569,1.3431,3,3,3h35.7642  c1.6569,0,3-1.3431,3-3v-9.0537c0-1.6569-1.3431-3-3-3h-2.7935c-3.3413-0.0037-6.0492-2.7114-6.0532-6.0527v-1.4756  C187.46,127.7038,191.4074,129.1745,194.9172,129.1745z M188.9821,138.319v3.0557H159.218v-3.0557  c6.5719-0.1198,11.839-5.4778,11.8462-12.0508v-7.5752c-0.0001-1.6569-1.6892-4.068-4.9629-2.2686  c-5.0317,4.3525-9.5845,6.75-12.8188,6.75c-4.9075,0-8.8857-3.9783-8.8857-8.8857s3.9783-8.8857,8.8857-8.8857  c3.2339,0,7.7866,2.3975,12.8193,6.75c1.2532,1.0838,3.1477,0.9465,4.2315-0.3067c0.4716-0.5453,0.7311-1.2423,0.7309-1.9633  v-3.8174c-0.0001-0.6624-0.2193-1.3062-0.6235-1.8311c-3.2217-4.1816-4.9248-7.8428-4.9248-10.5859  c0-4.9075,3.9783-8.8857,8.8857-8.8857c4.9075,0,8.8858,3.9783,8.8858,8.8857l0,0c0,2.874-1.9507,6.8906-5.4927,11.31  c-0.4268,0.5321-0.6593,1.1939-0.6592,1.876v3.05c0.0001,1.6569,1.3432,3,3.0001,2.9999c0.7209,0,1.4176-0.2596,1.9628-0.7313  c5.0317-4.3525,9.5845-6.75,12.8188-6.75c4.9075,0,8.8857,3.9783,8.8857,8.8857s-3.9783,8.8857-8.8857,8.8857  c-3.2344,0-7.7871-2.3975-12.8188-6.75c-1.253-1.0841-4.4734-1.2996-4.9629,2.2686v7.5752  C177.1431,132.8414,182.4102,138.1992,188.9821,138.319z"/><path d="M218.9328,157.0338h6V37.1364c0-1.6569-1.3431-3-3-3h-66.3305v6h63.3306L218.9328,157.0338z"/><path d="M129.2668,70.7116h-6V190.61c0,1.6569,1.3431,3,3,3h66.3306v-6h-63.3306V70.7116z"/><text x="0" y="271" fill="#000000" font-size="5px" font-weight="bold" font-family="'Helvetica Neue', Helvetica, Arial-Unicode, Arial, Sans-serif">Created by nuengrutai</text><text x="0" y="276" fill="#000000" font-size="5px" font-weight="bold" font-family="'Helvetica Neue', Helvetica, Arial-Unicode, Arial, Sans-serif">from the Noun Project</text></svg>